<mxfile host="65bd71144e">
    <diagram id="e50d5a8b-f89a-59a1-6115-5f8c8060d788" name="Page-1">
        <mxGraphModel dx="1042" dy="1296" grid="1" gridSize="10" guides="1" tooltips="1" connect="1" arrows="1" fold="1" page="1" pageScale="1" pageWidth="1169" pageHeight="1654" math="0" shadow="0">
            <root>
                <mxCell id="0"/>
                <mxCell id="1" parent="0"/>
                <mxCell id="41fe28ffb9dbdb2c-22" value="Personnel&#10;" style="swimlane;fontStyle=1;align=center;verticalAlign=top;childLayout=stackLayout;horizontal=1;startSize=26;horizontalStack=0;resizeParent=1;resizeParentMax=0;resizeLast=0;collapsible=1;marginBottom=0;swimlaneFillColor=#ffffff;strokeColor=#d6b656;strokeWidth=1;fillColor=#fff2cc;fontSize=13;" parent="1" vertex="1">
                    <mxGeometry x="400" y="100" width="240" height="100" as="geometry"/>
                </mxCell>
                <mxCell id="41fe28ffb9dbdb2c-23" value="+ personList: ArrayList&lt;Person&gt;" style="text;strokeColor=none;fillColor=none;align=left;verticalAlign=top;spacingLeft=4;spacingRight=4;overflow=hidden;rotatable=0;points=[[0,0.5],[1,0.5]];portConstraint=eastwest;fontColor=#000066;" parent="41fe28ffb9dbdb2c-22" vertex="1">
                    <mxGeometry y="26" width="240" height="24" as="geometry"/>
                </mxCell>
                <mxCell id="41fe28ffb9dbdb2c-24" value="" style="line;strokeWidth=1;fillColor=#fff2cc;align=left;verticalAlign=middle;spacingTop=-1;spacingLeft=3;spacingRight=3;rotatable=0;labelPosition=right;points=[];portConstraint=eastwest;strokeColor=#d6b656;" parent="41fe28ffb9dbdb2c-22" vertex="1">
                    <mxGeometry y="50" width="240" height="8" as="geometry"/>
                </mxCell>
                <mxCell id="41fe28ffb9dbdb2c-25" value="+ Personnel(): void&#10;+ addPersonnel(person: Person): void" style="text;strokeColor=none;fillColor=none;align=left;verticalAlign=top;spacingLeft=4;spacingRight=4;overflow=hidden;rotatable=0;points=[[0,0.5],[1,0.5]];portConstraint=eastwest;fontColor=#000066;" parent="41fe28ffb9dbdb2c-22" vertex="1">
                    <mxGeometry y="58" width="240" height="42" as="geometry"/>
                </mxCell>
                <mxCell id="70" style="edgeStyle=none;html=1;entryX=0.5;entryY=0;entryDx=0;entryDy=0;strokeColor=default;endArrow=none;endFill=0;labelPosition=left;verticalLabelPosition=top;align=right;verticalAlign=bottom;startArrow=none;startFill=0;endSize=12;startSize=12;exitX=0.498;exitY=1.014;exitDx=0;exitDy=0;exitPerimeter=0;" parent="1" source="41fe28ffb9dbdb2c-25" target="47" edge="1">
                    <mxGeometry relative="1" as="geometry">
                        <mxPoint x="520.96" y="229.9999999999999" as="sourcePoint"/>
                    </mxGeometry>
                </mxCell>
                <mxCell id="74" value="1" style="edgeLabel;html=1;align=right;verticalAlign=bottom;resizable=0;points=[];labelPosition=left;verticalLabelPosition=top;" parent="70" vertex="1" connectable="0">
                    <mxGeometry x="-0.4741" y="2" relative="1" as="geometry">
                        <mxPoint x="-12" y="-13" as="offset"/>
                    </mxGeometry>
                </mxCell>
                <mxCell id="75" value="1" style="edgeLabel;html=1;align=right;verticalAlign=top;resizable=0;points=[];labelPosition=left;verticalLabelPosition=bottom;" parent="70" vertex="1" connectable="0">
                    <mxGeometry x="0.2074" y="2" relative="1" as="geometry">
                        <mxPoint x="-11" y="16" as="offset"/>
                    </mxGeometry>
                </mxCell>
                <mxCell id="113" style="edgeStyle=none;html=1;entryX=-0.009;entryY=0.158;entryDx=0;entryDy=0;entryPerimeter=0;startArrow=none;startFill=0;endArrow=blockThin;endFill=0;startSize=16;endSize=12;dashed=1;" edge="1" parent="1" source="47" target="109">
                    <mxGeometry relative="1" as="geometry"/>
                </mxCell>
                <mxCell id="114" value="creates" style="edgeLabel;html=1;align=center;verticalAlign=middle;resizable=0;points=[];" vertex="1" connectable="0" parent="113">
                    <mxGeometry x="0.2435" relative="1" as="geometry">
                        <mxPoint x="-18" as="offset"/>
                    </mxGeometry>
                </mxCell>
                <mxCell id="116" style="edgeStyle=none;html=1;entryX=-0.014;entryY=-0.099;entryDx=0;entryDy=0;entryPerimeter=0;dashed=1;startArrow=none;startFill=0;endArrow=blockThin;endFill=0;startSize=16;endSize=12;" edge="1" parent="1" source="47" target="90">
                    <mxGeometry relative="1" as="geometry"/>
                </mxCell>
                <mxCell id="117" value="creates" style="edgeLabel;html=1;align=center;verticalAlign=middle;resizable=0;points=[];" vertex="1" connectable="0" parent="116">
                    <mxGeometry x="0.0308" y="1" relative="1" as="geometry">
                        <mxPoint as="offset"/>
                    </mxGeometry>
                </mxCell>
                <mxCell id="47" value="PersonnelDirectory" style="swimlane;fontStyle=1;align=center;verticalAlign=top;childLayout=stackLayout;horizontal=1;startSize=26;horizontalStack=0;resizeParent=1;resizeParentMax=0;resizeLast=0;collapsible=1;marginBottom=0;swimlaneFillColor=#ffffff;strokeColor=#d6b656;strokeWidth=1;fillColor=#fff2cc;fontSize=13;" parent="1" vertex="1">
                    <mxGeometry x="439" y="322" width="160" height="66" as="geometry"/>
                </mxCell>
                <mxCell id="49" value="" style="line;strokeWidth=1;fillColor=#fff2cc;align=left;verticalAlign=middle;spacingTop=-1;spacingLeft=3;spacingRight=3;rotatable=0;labelPosition=right;points=[];portConstraint=eastwest;strokeColor=#d6b656;" parent="47" vertex="1">
                    <mxGeometry y="26" width="160" height="8" as="geometry"/>
                </mxCell>
                <mxCell id="50" value="+ main(): void" style="text;strokeColor=none;fillColor=none;align=left;verticalAlign=top;spacingLeft=4;spacingRight=4;overflow=hidden;rotatable=0;points=[[0,0.5],[1,0.5]];portConstraint=eastwest;fontColor=#000066;" parent="47" vertex="1">
                    <mxGeometry y="34" width="160" height="32" as="geometry"/>
                </mxCell>
                <mxCell id="87" value="Person" style="swimlane;fontStyle=1;align=center;verticalAlign=top;childLayout=stackLayout;horizontal=1;startSize=26;horizontalStack=0;resizeParent=1;resizeParentMax=0;resizeLast=0;collapsible=1;marginBottom=0;swimlaneFillColor=#ffffff;strokeColor=#d6b656;strokeWidth=1;fillColor=#fff2cc;fontSize=13;" parent="1" vertex="1">
                    <mxGeometry x="760" y="120" width="300" height="130" as="geometry"/>
                </mxCell>
                <mxCell id="88" value="+ last: String&#10;+ first: String&#10;+ middle: String" style="text;strokeColor=none;fillColor=none;align=left;verticalAlign=top;spacingLeft=4;spacingRight=4;overflow=hidden;rotatable=0;points=[[0,0.5],[1,0.5]];portConstraint=eastwest;fontColor=#000066;" parent="87" vertex="1">
                    <mxGeometry y="26" width="300" height="54" as="geometry"/>
                </mxCell>
                <mxCell id="89" value="" style="line;strokeWidth=1;fillColor=#fff2cc;align=left;verticalAlign=middle;spacingTop=-1;spacingLeft=3;spacingRight=3;rotatable=0;labelPosition=right;points=[];portConstraint=eastwest;strokeColor=#d6b656;" parent="87" vertex="1">
                    <mxGeometry y="80" width="300" height="8" as="geometry"/>
                </mxCell>
                <mxCell id="90" value="+ Person(last: String, first: String, middle: String): void&#10;+ printName(order: int): void" style="text;strokeColor=none;fillColor=none;align=left;verticalAlign=top;spacingLeft=4;spacingRight=4;overflow=hidden;rotatable=0;points=[[0,0.5],[1,0.5]];portConstraint=eastwest;fontColor=#000066;" parent="87" vertex="1">
                    <mxGeometry y="88" width="300" height="42" as="geometry"/>
                </mxCell>
                <mxCell id="91" style="edgeStyle=none;html=1;entryX=0;entryY=0.656;entryDx=0;entryDy=0;strokeColor=default;endArrow=none;endFill=0;labelPosition=left;verticalLabelPosition=top;align=right;verticalAlign=bottom;startArrow=diamond;startFill=0;endSize=12;startSize=12;exitX=1.005;exitY=-0.031;exitDx=0;exitDy=0;exitPerimeter=0;entryPerimeter=0;" parent="1" source="41fe28ffb9dbdb2c-25" target="88" edge="1">
                    <mxGeometry relative="1" as="geometry">
                        <mxPoint x="680.96" y="150.8699999999999" as="sourcePoint"/>
                        <mxPoint x="710" y="290" as="targetPoint"/>
                    </mxGeometry>
                </mxCell>
                <mxCell id="92" value="1" style="edgeLabel;html=1;align=right;verticalAlign=bottom;resizable=0;points=[];labelPosition=left;verticalLabelPosition=top;" parent="91" vertex="1" connectable="0">
                    <mxGeometry x="-0.4741" y="2" relative="1" as="geometry">
                        <mxPoint x="-12" y="-11" as="offset"/>
                    </mxGeometry>
                </mxCell>
                <mxCell id="93" value="0..*" style="edgeLabel;html=1;align=right;verticalAlign=top;resizable=0;points=[];labelPosition=left;verticalLabelPosition=bottom;" parent="91" vertex="1" connectable="0">
                    <mxGeometry x="0.2074" y="2" relative="1" as="geometry">
                        <mxPoint x="37" y="-20" as="offset"/>
                    </mxGeometry>
                </mxCell>
                <mxCell id="94" value="has" style="edgeLabel;html=1;align=center;verticalAlign=middle;resizable=0;points=[];" parent="91" vertex="1" connectable="0">
                    <mxGeometry x="-0.0271" y="1" relative="1" as="geometry">
                        <mxPoint x="1" y="-14" as="offset"/>
                    </mxGeometry>
                </mxCell>
                <mxCell id="102" value="TotalObjects" style="swimlane;fontStyle=1;align=center;verticalAlign=top;childLayout=stackLayout;horizontal=1;startSize=26;horizontalStack=0;resizeParent=1;resizeParentMax=0;resizeLast=0;collapsible=1;marginBottom=0;swimlaneFillColor=#ffffff;strokeColor=#d6b656;strokeWidth=1;fillColor=#fff2cc;fontSize=13;" vertex="1" parent="1">
                    <mxGeometry x="210" y="300" width="150" height="110" as="geometry"/>
                </mxCell>
                <mxCell id="103" value="- numObjects: int" style="text;strokeColor=none;fillColor=none;align=left;verticalAlign=top;spacingLeft=4;spacingRight=4;overflow=hidden;rotatable=0;points=[[0,0.5],[1,0.5]];portConstraint=eastwest;fontColor=#000066;" vertex="1" parent="102">
                    <mxGeometry y="26" width="150" height="24" as="geometry"/>
                </mxCell>
                <mxCell id="104" value="" style="line;strokeWidth=1;fillColor=#fff2cc;align=left;verticalAlign=middle;spacingTop=-1;spacingLeft=3;spacingRight=3;rotatable=0;labelPosition=right;points=[];portConstraint=eastwest;strokeColor=#d6b656;" vertex="1" parent="102">
                    <mxGeometry y="50" width="150" height="8" as="geometry"/>
                </mxCell>
                <mxCell id="105" value="+ TotalObjects(): void&#10;+ objectAdded(): void&#10;+ getTotalObjects(): int" style="text;strokeColor=none;fillColor=none;align=left;verticalAlign=top;spacingLeft=4;spacingRight=4;overflow=hidden;rotatable=0;points=[[0,0.5],[1,0.5]];portConstraint=eastwest;fontColor=#000066;" vertex="1" parent="102">
                    <mxGeometry y="58" width="150" height="52" as="geometry"/>
                </mxCell>
                <mxCell id="106" style="edgeStyle=none;html=1;startArrow=none;startFill=0;entryX=1.006;entryY=-0.033;entryDx=0;entryDy=0;entryPerimeter=0;dashed=1;endArrow=blockThin;endFill=0;startSize=16;endSize=12;exitX=-0.015;exitY=-0.001;exitDx=0;exitDy=0;exitPerimeter=0;" edge="1" parent="1" source="50" target="105">
                    <mxGeometry relative="1" as="geometry">
                        <mxPoint x="370" y="409.9999999999998" as="targetPoint"/>
                    </mxGeometry>
                </mxCell>
                <mxCell id="107" value="calls" style="edgeLabel;html=1;align=center;verticalAlign=middle;resizable=0;points=[];" vertex="1" connectable="0" parent="106">
                    <mxGeometry x="-0.0527" relative="1" as="geometry">
                        <mxPoint as="offset"/>
                    </mxGeometry>
                </mxCell>
                <mxCell id="112" style="edgeStyle=none;html=1;entryX=0.364;entryY=1.046;entryDx=0;entryDy=0;entryPerimeter=0;startArrow=none;startFill=0;endArrow=blockThin;endFill=0;endSize=12;" edge="1" parent="1" source="108" target="90">
                    <mxGeometry relative="1" as="geometry"/>
                </mxCell>
                <mxCell id="108" value="Employee" style="swimlane;fontStyle=1;align=center;verticalAlign=top;childLayout=stackLayout;horizontal=1;startSize=26;horizontalStack=0;resizeParent=1;resizeParentMax=0;resizeLast=0;collapsible=1;marginBottom=0;swimlaneFillColor=#ffffff;strokeColor=#d6b656;strokeWidth=1;fillColor=#fff2cc;fontSize=13;" vertex="1" parent="1">
                    <mxGeometry x="720" y="322" width="140" height="110" as="geometry"/>
                </mxCell>
                <mxCell id="109" value="- empID: int&#10;- baseSalary: double" style="text;strokeColor=none;fillColor=none;align=left;verticalAlign=top;spacingLeft=4;spacingRight=4;overflow=hidden;rotatable=0;points=[[0,0.5],[1,0.5]];portConstraint=eastwest;fontColor=#000066;" vertex="1" parent="108">
                    <mxGeometry y="26" width="140" height="44" as="geometry"/>
                </mxCell>
                <mxCell id="110" value="" style="line;strokeWidth=1;fillColor=#fff2cc;align=left;verticalAlign=middle;spacingTop=-1;spacingLeft=3;spacingRight=3;rotatable=0;labelPosition=right;points=[];portConstraint=eastwest;strokeColor=#d6b656;" vertex="1" parent="108">
                    <mxGeometry y="70" width="140" height="8" as="geometry"/>
                </mxCell>
                <mxCell id="111" value="+ getID(): int" style="text;strokeColor=none;fillColor=none;align=left;verticalAlign=top;spacingLeft=4;spacingRight=4;overflow=hidden;rotatable=0;points=[[0,0.5],[1,0.5]];portConstraint=eastwest;fontColor=#000066;" vertex="1" parent="108">
                    <mxGeometry y="78" width="140" height="32" as="geometry"/>
                </mxCell>
            </root>
        </mxGraphModel>
    </diagram>
</mxfile>
